PathFileType	3	(X/Y/Z)	RCH0000002 BBF 14.c3d
DataRate	CameraRate	NumFrames	NumMarkers	Units	OrigDataRate	OrigDataStartFrame	OrigNumFrames
100.0	100.0	13	23	mm	100.0	209	502
Frame#	Time	RASI			LPAT			LKNE			LANK			LMED			LHEE			RPAT			RKNE			RANK			RMED			RHEE			RTOE			LTOE			MAN			LASI			T2			T10			LPSI			RPSI			RTHI			LTHI			RTIB			LTIB			
		X1	Y1	Z1	X2	Y2	Z2	X3	Y3	Z3	X4	Y4	Z4	X5	Y5	Z5	X6	Y6	Z6	X7	Y7	Z7	X8	Y8	Z8	X9	Y9	Z9	X10	Y10	Z10	X11	Y11	Z11	X12	Y12	Z12	X13	Y13	Z13	X14	Y14	Z14	X15	Y15	Z15	X16	Y16	Z16	X17	Y17	Z17	X18	Y18	Z18	X19	Y19	Z19	X20	Y20	Z20	X21	Y21	Z21	X22	Y22	Z22	X23	Y23	Z23	

209	2.080	-1023.38325	-199.86635	654.05132	-922.22676	-79.60408	388.25412	-948.18340	-15.70650	339.71724	-973.97969	12.37616	70.52039	-971.18904	-58.73188	79.61136	-1015.16110	-31.35035	91.83105	-1100.48180	-153.99734	354.36867	-1152.96271	-208.83390	340.89452	-1295.39218	-216.43815	101.43539	-1309.06456	-151.10440	121.34273	-1326.42063	-193.79634	152.16824	-1269.36221	-171.85702	72.15490	-923.02655	-20.84277	69.71718	-998.62489	-48.39235	941.42288	-1009.94618	-26.57616	625.39374	-1134.67491	-62.72992	962.76759	-1119.52660	-81.70060	775.99796	-1127.55238	-59.18648	676.03557	-1130.04112	-129.22886	691.13229	-1098.16870	-275.43748	440.38759	-990.78909	54.24867	457.08248	-1212.02442	-278.88840	237.03675	-958.41037	58.68548	233.22431	
210	2.090	-1010.49844	-198.73723	651.86389	-915.74431	-77.46686	385.75670	-942.52081	-13.60052	337.93824	-972.57288	14.01527	68.76619	-970.28297	-57.04045	78.51971	-1013.72938	-29.27352	90.88553	-1084.99442	-152.86751	351.30511	-1138.30631	-207.12642	338.25163	-1286.83365	-216.21104	103.08236	-1299.82036	-150.81453	123.09329	-1315.51855	-193.24305	154.99178	-1262.94341	-171.76653	71.89640	-921.76109	-19.65931	67.97691	-988.00810	-46.38375	941.51726	-998.93641	-25.15386	625.66931	-1124.32640	-60.94208	961.17167	-1106.70006	-82.06740	775.12303	-1115.74957	-59.78217	676.56765	-1117.49240	-129.99612	690.40936	-1084.71793	-274.08570	438.16441	-982.91198	56.09445	456.29264	-1199.38720	-277.77333	236.55934	-954.13198	60.57867	231.30158	
211	2.100	-997.60888	-197.38208	649.86798	-909.88147	-74.29268	383.86644	-937.79906	-10.74165	336.76418	-971.93720	16.16595	67.53385	-970.13825	-54.84107	78.04348	-1013.04950	-26.64652	90.56919	-1068.96194	-151.58383	348.44038	-1123.04099	-205.28882	335.68883	-1277.34552	-215.83189	104.93827	-1289.60258	-150.33093	124.94050	-1303.62758	-192.43712	157.89306	-1255.63734	-171.61533	71.86340	-921.32870	-17.99517	66.68268	-977.47688	-44.51615	942.03689	-988.35823	-23.48629	626.47034	-1114.01872	-59.48683	960.01372	-1093.95875	-82.68825	774.72807	-1104.20087	-60.56849	677.63148	-1105.04818	-130.94087	690.08289	-1070.76795	-272.55643	436.09944	-976.13268	58.55476	456.07843	-1186.00840	-276.51063	236.23942	-950.74549	63.18261	229.84815	
212	2.110	-984.79741	-195.79517	648.13497	-904.66526	-70.25337	382.55268	-933.99176	-7.25401	336.16469	-971.76181	18.72365	66.77341	-970.45178	-52.24060	78.10899	-1012.84459	-23.57991	90.78065	-1052.49410	-150.14188	345.88587	-1107.25323	-203.33794	333.30753	-1266.95478	-215.30988	107.03651	-1278.45028	-149.66109	126.90249	-1290.85109	-191.38742	160.87135	-1247.37167	-171.41954	72.13852	-921.41769	-15.94577	65.80730	-967.06059	-42.81527	942.96861	-978.22689	-21.58621	627.75908	-1103.77554	-58.38897	959.32412	-1081.38875	-83.50393	774.82148	-1092.94155	-61.47226	679.18278	-1092.77265	-131.98220	690.15642	-1056.38203	-270.85649	434.28324	-970.37965	61.53378	456.40712	-1171.96864	-275.11180	236.15370	-948.11415	66.38327	228.82791	
213	2.120	-972.14157	-193.98227	646.73051	-900.10676	-65.58953	381.74478	-931.04720	-3.31191	336.07189	-971.82373	21.52011	66.41361	-970.97938	-49.40363	78.61616	-1012.90312	-20.26136	91.39968	-1035.68485	-148.53794	343.74861	-1091.01857	-201.28942	331.20496	-1255.69097	-214.66337	109.40188	-1266.40888	-148.82544	128.99451	-1277.30301	-190.11893	163.92567	-1238.06857	-171.19845	72.79412	-921.78252	-13.65114	65.30225	-956.78543	-41.29934	944.28753	-968.53636	-19.47700	629.47541	-1093.61985	-57.65452	959.11567	-1069.06656	-84.44316	775.39154	-1081.99189	-62.41066	681.15940	-1080.72048	-133.03155	690.62000	-1041.62625	-268.99841	432.80400	-965.53356	64.89620	457.20932	-1157.33933	-273.59268	236.37581	-946.14824	70.00264	228.18125	
214	2.130	-959.70977	-191.96014	645.70856	-896.19496	-60.58561	381.34659	-928.88614	0.87705	336.39217	-971.98680	24.34610	66.37384	-971.53966	-46.53111	79.45135	-1013.07872	-16.93148	92.30206	-1018.60904	-146.77007	342.12347	-1074.39987	-199.15722	329.46693	-1243.58217	-213.91485	112.04349	-1253.52381	-147.85167	131.22279	-1263.09633	-188.66614	167.04954	-1227.64949	-170.96977	73.88258	-922.24759	-11.27755	65.10616	-946.67304	-39.97841	945.95705	-959.26272	-17.19111	631.54103	-1083.57283	-57.26968	959.38215	-1057.05576	-85.42752	776.40648	-1071.35867	-63.29900	683.48511	-1068.93524	-134.00057	691.45019	-1026.56806	-266.99978	431.74002	-961.43869	68.48142	458.38753	-1142.18115	-271.97105	236.96833	-944.79821	73.81934	227.83636	
215	2.140	-947.55816	-189.75496	645.10603	-892.89279	-55.53823	381.25213	-927.40244	5.09340	337.01974	-972.18772	26.97988	66.57542	-972.01001	-43.83399	80.50066	-1013.28102	-13.85123	93.37372	-1001.32167	-144.84001	341.08645	-1057.44748	-196.95408	328.16192	-1230.65156	-213.08569	114.94867	-1239.83454	-146.76865	133.57906	-1248.33125	-187.06602	170.22572	-1216.04154	-170.74500	75.42797	-922.70169	-8.99646	65.15310	-936.73919	-38.85432	947.92951	-950.36923	-14.76756	633.86513	-1073.65265	-57.20156	960.09798	-1045.40486	-86.37721	777.81600	-1061.03774	-64.05901	686.07425	-1057.44872	-134.80929	692.61078	-1011.27507	-264.88286	431.15311	-957.91816	72.12071	459.82759	-1126.54364	-270.26453	237.97530	-944.03885	77.59515	227.72016	
216	2.150	-935.72836	-187.39960	644.93861	-890.13580	-50.72252	381.35948	-926.46688	9.12880	337.84933	-972.41459	29.21707	66.95022	-972.31744	-41.50575	81.66151	-1013.46140	-11.26580	94.52155	-983.85938	-142.75565	340.68992	-1040.20083	-194.69255	327.33701	-1216.91473	-212.19151	118.07912	-1225.37003	-145.60087	136.03683	-1233.08500	-185.35188	173.42219	-1203.18446	-170.52583	77.42067	-923.08601	-6.96352	65.37953	-926.99278	-37.92125	950.14732	-941.81224	-12.24901	636.35075	-1063.87337	-57.40048	961.21950	-1034.14641	-87.21704	779.55420	-1051.01728	-64.62674	688.83658	-1046.28100	-135.39352	694.05425	-995.81384	-262.67420	431.08368	-954.79119	75.65476	461.41112	-1110.46553	-268.48884	239.41610	-943.84938	81.10341	227.76693	
217	2.160	-924.24647	-184.93040	645.19858	-887.83395	-46.36190	381.58078	-925.93410	12.80739	338.78635	-972.68308	30.89770	67.44526	-972.42707	-39.69771	82.85098	-1013.59737	-9.37060	95.67945	-966.24360	-140.53303	340.96040	-1022.69067	-192.38623	327.01620	-1202.37830	-211.23895	121.37023	-1210.14617	-144.36438	138.55039	-1217.40493	-183.54915	176.59035	-1189.03702	-170.30204	79.81580	-923.37919	-5.30048	65.72895	-917.43516	-37.16682	952.54459	-933.54713	-9.67854	638.90125	-1054.24398	-57.80386	962.68744	-1023.29734	-87.88195	781.54363	-1041.28114	-64.95860	691.68183	-1035.44124	-135.71036	695.72360	-980.24831	-260.40408	431.54805	-951.88989	78.94895	463.02726	-1093.97533	-266.65691	241.28184	-944.19474	84.15529	227.92363	
218	2.170	-913.12320	-182.38381	645.85467	-885.87648	-42.60623	381.84726	-925.65182	16.00246	339.75318	-973.01486	31.92656	68.02325	-972.33093	-38.50079	84.01004	-1013.67898	-8.28461	96.80909	-948.48470	-138.19752	341.89891	-1004.94140	-190.05082	327.20091	-1187.04001	-210.22413	124.73383	-1194.16600	-143.06468	141.05687	-1201.30614	-181.67337	179.66602	-1173.58173	-170.05093	82.53615	-923.58230	-4.08221	66.15435	-908.06003	-36.57365	955.04941	-925.53324	-7.09671	641.42616	-1044.76770	-58.34118	964.43055	-1012.86030	-88.32156	783.69997	-1031.81194	-65.03506	694.52356	-1024.92908	-135.74128	697.55465	-964.63754	-258.10552	432.53816	-949.07324	81.90443	464.58213	-1077.09230	-264.77845	243.53459	-945.01201	86.62023	228.15182	
219	2.180	-902.35511	-179.79351	646.85404	-884.13961	-39.52152	382.10972	-925.47112	18.64624	340.69182	-973.42163	32.28390	68.66008	-972.03850	-37.93610	85.10371	-1013.69891	-8.03508	97.89630	-930.58645	-135.78325	343.48367	-986.97303	-187.70451	327.87266	-1170.89037	-209.13309	128.06435	-1177.42237	-141.69671	143.48135	-1184.77390	-179.73061	182.57318	-1156.82717	-169.73853	85.47915	-923.70614	-3.33043	66.61863	-898.85361	-36.12114	957.58634	-917.73733	-4.53914	643.84594	-1035.44154	-58.93953	966.37000	-1002.82567	-88.50320	785.93697	-1022.59339	-64.86130	697.28230	-1014.73639	-135.49242	699.47862	-949.03284	-255.81271	434.02359	-946.23648	84.46394	466.00501	-1059.82763	-262.86019	246.10983	-946.20431	88.43784	228.42679	
220	2.190	-891.92692	-177.18830	648.12616	-882.49614	-37.09213	382.33571	-925.25610	20.73159	341.56321	-973.89613	32.02532	69.34046	-971.56976	-37.95535	86.11803	-1013.64722	-8.55582	98.94445	-912.55048	-133.33096	345.67450	-968.80259	-185.36753	328.99720	-1153.91559	-207.94364	131.24731	-1159.90271	-140.24647	145.74396	-1167.77030	-177.71945	185.22989	-1138.80754	-169.32208	88.52708	-923.76222	-3.01467	67.09355	-889.79532	-35.78729	960.07931	-910.13528	-2.03492	646.09535	-1026.25615	-59.52931	968.42407	-993.17395	-88.41338	788.17115	-1013.61175	-64.46515	699.88784	-1004.84913	-134.99217	701.42487	-933.47463	-253.55880	435.95547	-943.31444	86.61224	467.25101	-1042.18590	-260.90638	248.92176	-947.64240	89.62010	228.73453	
221	2.200	-881.81431	-174.59108	649.58803	-880.82577	-35.23406	382.50511	-924.89188	22.30607	342.34443	-974.41034	31.27098	70.05329	-970.95067	-38.45076	87.05492	-1013.51020	-9.69897	99.96670	-894.38019	-130.88431	348.41821	-950.44531	-183.06090	330.52949	-1136.10158	-206.62844	134.16947	-1141.59469	-138.69384	147.76792	-1150.24381	-175.63370	187.55554	-1119.57975	-168.75384	91.55889	-923.75762	-3.05997	67.55810	-880.85885	-35.55044	962.45459	-902.71175	0.39418	648.12539	-1017.19606	-60.04925	970.51275	-983.87827	-88.05743	790.32605	-1004.85624	-63.89260	702.28075	-995.24931	-134.28672	703.32364	-917.98990	-251.37332	438.27172	-940.27901	88.37162	468.30023	-1024.16711	-258.91942	251.87092	-949.17325	90.24412	229.06772	
